# xmcd
#
# Track frame offsets: 
#        150
#        14613
#        31326
#        45529
#        56025
#        78255
#        91397
#        99035
#        114973
#        131547
#
# Disc length: 1970 seconds
#
# Revision: 0
# Processed by: cddbd v1.5.2PL0 Copyright (c) Steve Scherf et al.
# Submitted via: ExactAudioCopy v0.99pb4
#
DISCID=7007b00a
DTITLE=Willie Nelson - Best of Willie Nelson Live
DYEAR=2008
DGENRE=Country
TTITLE0=Good Hearted Woman
TTITLE1=Georgia On My Mind
TTITLE2=Blue Eyes Crying in the Rain
TTITLE3=On the Road Again
TTITLE4=City of New Orleans
TTITLE5=To All the Girls I've Loved Before
TTITLE6=Luckenbach, Texas (Back to the Basics of Love)
TTITLE7=Whiskey River
TTITLE8=Angel Flying Too Close to the Ground
TTITLE9=Always on My Mind
EXTD=
EXTT0=
EXTT1=
EXTT2=
EXTT3=
EXTT4=
EXTT5=
EXTT6=
EXTT7=
EXTT8=
EXTT9=
PLAYORDER=
